<svg width="198" height="198" viewBox="0 0 198 198" fill="none" xmlns="http://www.w3.org/2000/svg">
<path d="M191.812 30.9375H179.438V37.125H191.812V120.656H6.1875V37.125H18.5625V30.9375H6.1875C2.77501 30.9375 0 33.7125 0 37.125V145.406C0 148.819 2.77501 151.594 6.1875 151.594H79.8242L74.7636 179.438H64.9688C64.1455 179.438 63.3599 179.762 62.7814 180.344L56.5939 186.531C56.0123 187.11 55.6875 187.898 55.6875 188.719V194.906C55.6875 196.613 57.0697 198 58.7812 198H139.219C140.93 198 142.312 196.613 142.312 194.906V188.719C142.312 187.898 141.988 187.11 141.406 186.531L135.219 180.344C134.64 179.762 133.855 179.438 133.031 179.438H123.236L118.176 151.594H191.812C195.225 151.594 198 148.819 198 145.406V37.125C198 33.7125 195.225 30.9375 191.812 30.9375ZM136.125 190V191.812H61.875V190L66.2498 185.625H131.75L136.125 190ZM116.949 179.438H81.0508L86.1144 151.594H95.9093L95.9062 163.969H92.8125V170.156H105.188V163.969H102.094L102.097 151.594H111.886L116.949 179.438ZM191.812 145.406H6.1875V126.844H191.812V145.406Z" fill="#EDEDED"/>
<path d="M89.7188 133.031H108.281V139.219H89.7188V133.031Z" fill="#EDEDED"/>
<path d="M92.8125 74.25H105.188C108.6 74.25 111.375 71.475 111.375 68.0625V43.3125C111.375 39.9 108.6 37.125 105.188 37.125H92.8125C89.4 37.125 86.625 39.9 86.625 43.3125V68.0625C86.625 71.475 89.4 74.25 92.8125 74.25ZM92.8125 43.3125H105.188L105.191 68.0625H92.8125V43.3125Z" fill="#EDEDED"/>
<path d="M77.3438 74.25V64.9688H80.4375V58.7812H77.3438V40.2188C77.3438 38.5117 75.9615 37.125 74.25 37.125H68.0625C67.0292 37.125 66.0639 37.6416 65.4884 38.5012L53.1134 57.0637C52.7765 57.5712 52.5938 58.1725 52.5938 58.7812V61.875C52.5938 63.582 53.976 64.9688 55.6875 64.9688H71.1562V74.25H77.3438ZM59.4066 58.7812L69.7181 43.3125H71.1562V58.7812H59.4066Z" fill="#EDEDED"/>
<path d="M142.312 40.2188C142.312 38.5117 140.93 37.125 139.219 37.125H133.031C131.998 37.125 131.033 37.6416 130.457 38.5012L118.082 57.0637C117.745 57.5712 117.562 58.1725 117.562 58.7812V61.875C117.562 63.582 118.945 64.9688 120.656 64.9688H136.125V74.25H142.312V64.9688H145.406V58.7812H142.312V40.2188ZM136.125 58.7812H124.375L134.687 43.3125H136.125V58.7812Z" fill="#EDEDED"/>
<path d="M27.8438 114.469H170.156C171.868 114.469 173.25 113.082 173.25 111.375V3.09375C173.25 1.38675 171.868 0 170.156 0H27.8438C26.1322 0 24.75 1.38675 24.75 3.09375V111.375C24.75 113.082 26.1322 114.469 27.8438 114.469ZM30.9375 108.281V24.75H167.062V108.281H30.9375ZM30.9375 6.1875H167.062V18.5625H30.9375V6.1875Z" fill="#EDEDED"/>
<path d="M43.3125 9.28125H49.5V15.4688H43.3125V9.28125Z" fill="#EDEDED"/>
<path d="M55.6875 9.28125H61.875V15.4688H55.6875V9.28125Z" fill="#EDEDED"/>
<path d="M68.0625 9.28125H74.25V15.4688H68.0625V9.28125Z" fill="#EDEDED"/>
<path d="M136.125 9.28125H154.688V15.4688H136.125V9.28125Z" fill="#EDEDED"/>
<path d="M111.375 80.4375H86.625C81.5085 80.4375 77.3438 84.6023 77.3438 89.7188C77.3438 94.8352 81.5085 99 86.625 99H111.375C116.491 99 120.656 94.8352 120.656 89.7188C120.656 84.6023 116.491 80.4375 111.375 80.4375ZM111.375 92.8125H86.625C84.918 92.8125 83.5312 91.4227 83.5312 89.7188C83.5312 88.0148 84.918 86.625 86.625 86.625H111.375C113.082 86.625 114.469 88.0148 114.469 89.7188C114.469 91.4227 113.082 92.8125 111.375 92.8125Z" fill="#EDEDED"/>
</svg>
