<svg width="94" height="94" viewBox="0 0 94 94" fill="none" xmlns="http://www.w3.org/2000/svg">
<path d="M82.8466 65.0951C97.7179 50.2235 97.7177 26.0254 82.8466 11.1537C67.975 -3.71791 43.7771 -3.71791 28.9058 11.1537C16.2892 23.7703 14.3785 42.5344 23.1683 57.1871C23.1683 57.1871 23.7997 58.2463 22.947 59.0984C18.0822 63.9629 3.48703 78.5584 3.48703 78.5584C-0.386299 82.4314 -1.30838 87.8473 2.12648 91.2828L2.71788 91.8735C6.15273 95.309 11.5689 94.3872 15.4419 90.5139C15.4419 90.5139 30.0062 75.9493 34.861 71.0948C35.7546 70.2012 36.8136 70.8326 36.8136 70.8326C51.466 79.6222 70.23 77.7117 82.8466 65.0951ZM35.9475 58.0531C24.9589 47.0645 24.9592 29.185 35.9478 18.1964C46.9364 7.20803 64.816 7.20773 75.8043 18.1964C86.7929 29.1847 86.7929 47.0645 75.8043 58.0531C64.8157 69.0411 46.9364 69.0411 35.9475 58.0531Z" fill="white"/>
<path d="M38.3819 35.8604C37.8704 35.8604 37.3505 35.7599 36.8493 35.5482C34.8474 34.7009 33.9108 32.391 34.758 30.3888C40.0834 17.804 54.654 11.8982 67.2385 17.2235C69.2404 18.0708 70.177 20.3807 69.3298 22.3829C68.4822 24.3851 66.1729 25.3212 64.1701 24.4742C55.584 20.841 45.6419 24.8706 42.009 33.4566C41.3734 34.9583 39.9156 35.8604 38.3819 35.8604Z" fill="white"/>
</svg>
