<svg width="217" height="217" viewBox="0 0 217 217" fill="none" xmlns="http://www.w3.org/2000/svg">
<g clip-path="url(#clip0)">
<path fill-rule="evenodd" clip-rule="evenodd" d="M106.513 25.9694C104.239 25.4446 101.969 26.8601 101.442 29.1349C100.916 31.4096 102.335 33.6811 104.609 34.2076C115.126 36.6379 124.738 41.9772 132.405 49.6442C154.946 72.1849 154.946 108.864 132.405 131.405C109.864 153.947 73.1849 153.947 50.6442 131.405C28.1018 108.864 28.1018 72.1849 50.6442 49.6442C57.1158 43.1725 64.7745 38.4525 73.4084 35.6115C75.6252 34.883 76.8321 32.494 76.1037 30.2756C75.3736 28.0571 72.9829 26.8502 70.7661 27.5803C60.8624 30.8368 52.0812 36.2489 44.6659 43.6659C18.8273 69.5045 18.8273 111.546 44.6659 137.385C57.5844 150.303 74.554 156.763 91.5254 156.763C108.495 156.762 125.465 150.303 138.385 137.385C164.222 111.546 164.222 69.5045 138.385 43.6659C129.595 34.8781 118.576 28.7574 106.513 25.9694Z" fill="#EBEBEB"/>
<path fill-rule="evenodd" clip-rule="evenodd" d="M212.242 183.393L167.939 139.09C190.656 103.465 185.681 56.6622 155.535 26.5141C138.438 9.41693 115.705 0 91.5254 0C67.344 0 44.6113 9.41693 27.5141 26.5141C10.4153 43.6113 1 66.344 1 90.5254C1 114.705 10.4153 137.438 27.5141 154.535C44.6113 171.632 67.3423 181.047 91.5221 181.047C108.876 181.047 125.592 176.18 140.09 166.939L184.393 211.242C188.1 214.95 193.045 216.992 198.318 216.992C203.59 216.992 208.535 214.95 212.244 211.242C219.919 203.563 219.919 191.072 212.242 183.393ZM206.264 205.264C204.153 207.373 201.332 208.535 198.318 208.535C195.304 208.535 192.483 207.373 190.372 205.264L143.621 158.513C142.804 157.694 141.721 157.275 140.632 157.275C139.794 157.275 138.953 157.522 138.223 158.028C124.486 167.556 108.336 172.592 91.5221 172.592C69.6006 172.592 48.9919 164.056 33.4924 148.557C1.49336 116.558 1.49336 64.4914 33.4924 32.4924C48.9936 16.9912 69.6022 8.45504 91.5254 8.45504C113.447 8.45504 134.056 16.9912 149.557 32.4924C177.649 60.5859 181.634 104.631 159.028 137.223C157.863 138.903 158.066 141.175 159.513 142.621L206.264 189.372C210.644 193.752 210.644 200.881 206.264 205.264Z" fill="#EBEBEB"/>
<path fill-rule="evenodd" clip-rule="evenodd" d="M117.046 65.003C115.396 63.3524 112.72 63.3524 111.068 65.003L91.5254 84.5454L71.9813 65.003C70.3307 63.3524 67.6536 63.3524 66.003 65.003C64.3524 66.6536 64.3524 69.3307 66.003 70.9813L85.5454 90.5254L66.003 110.068C64.3524 111.718 64.3524 114.396 66.003 116.046C66.8275 116.872 67.9102 117.284 68.9913 117.284C70.074 117.284 71.1551 116.872 71.9813 116.046L91.5237 96.5037L111.066 116.046C111.892 116.872 112.975 117.284 114.056 117.284C115.139 117.284 116.22 116.872 117.046 116.046C118.697 114.396 118.697 111.718 117.046 110.068L97.502 90.5254L117.046 70.9813C118.697 69.3307 118.697 66.6536 117.046 65.003Z" fill="#EBEBEB"/>
<path fill-rule="evenodd" clip-rule="evenodd" d="M88.7225 32.7738C91.0502 32.7738 92.9492 30.8749 92.9492 28.5455C92.9492 26.2178 91.0502 24.3188 88.7225 24.3188C86.3931 24.3188 84.4941 26.2178 84.4941 28.5455C84.4941 30.8749 86.3931 32.7738 88.7225 32.7738Z" fill="#EBEBEB"/>
</g>
<defs>
<clipPath id="clip0">
<rect width="217" height="217" fill="white"/>
</clipPath>
</defs>
</svg>
